<?xml version="1.0" encoding="UTF-8" standalone="no"?>
<svg width="912px" height="194px" viewBox="0 0 912 194" version="1.1" xmlns="http://www.w3.org/2000/svg" xmlns:xlink="http://www.w3.org/1999/xlink" xmlns:sketch="http://www.bohemiancoding.com/sketch/ns">
    <!-- Generator: Sketch 3.2 (9961) - http://www.bohemiancoding.com/sketch -->
    <title>Untitled</title>
    <desc>Created with Sketch.</desc>
    <defs>
        <path d="M104.05379,189.8 L60.3471883,189.8 L48.5183374,120.4 L47.9168704,120.4 L37.2909535,189.8 L0,189.8 L24.6601467,48.2 L69.3691932,48.2 L80.596577,119.6 L81.398533,119.6 L92.6259169,48.2 L128.713936,48.2 L104.05379,189.8 Z M212.279044,85 L178.797381,85 L175.790047,101 L206.665352,101 L200.851171,135.2 L169.975866,135.2 L166.968531,152.4 L204.259484,152.4 L197.843836,189.8 L120.455083,189.8 L145.11523,48.2 L218.694692,48.2 L212.279044,85 Z M345.830586,189.8 L304.128875,189.8 L304.128875,108.8 L303.527408,108.8 L275.458948,189.8 L232.153324,189.8 L232.153324,48.2 L273.855036,48.2 L269.243789,133.2 L270.246234,133.2 L296.109315,48.2 L334.001735,48.2 L330.9944,133.2 L331.595867,133.2 L356.456503,48.2 L397.356258,48.2 L345.830586,189.8 Z M467.94132,90.2 C465.80276,88.066656 463.1296,86.266674 459.92176,84.8 C456.71392,83.333326 453.572958,82.6 450.498778,82.6 C449.295838,82.6 448.059501,82.733332 446.789731,83 C445.519961,83.266668 444.350454,83.766663 443.281174,84.5 C442.211894,85.233337 441.343117,86.166661 440.674817,87.3 C440.006517,88.433339 439.672372,89.866658 439.672372,91.6 C439.672372,94.000012 440.541149,95.933326 442.278729,97.4 C444.016309,98.866674 447.023613,100.866654 451.300733,103.4 C453.706613,104.73334 456.346359,106.466656 459.220049,108.6 C462.093739,110.733344 464.833728,113.333318 467.440098,116.4 C470.046468,119.466682 472.21841,123.133312 473.95599,127.4 C475.69357,131.666688 476.562347,136.599972 476.562347,142.2 C476.562347,151.133378 474.958451,158.799968 471.750611,165.2 C468.542771,171.600032 464.365959,176.866646 459.220049,181 C454.074139,185.133354 448.260016,188.166657 441.777506,190.1 C435.294996,192.033343 428.845998,193 422.430318,193 C412.673138,193 403.818296,191.600014 395.865526,188.8 C387.912756,185.999986 381.664244,182.533354 377.119804,178.4 L401.178484,146.6 C403.851684,148.866678 407.026061,150.766659 410.701711,152.3 C414.377361,153.833341 418.086371,154.6 421.828851,154.6 C424.502051,154.6 426.941309,153.900007 429.146699,152.5 C431.352089,151.099993 432.454768,148.866682 432.454768,145.8 C432.454768,143.533322 431.585991,141.433343 429.848411,139.5 C428.110831,137.566657 424.903039,135.26668 420.224939,132.6 C417.150759,130.866658 414.143454,128.900011 411.202934,126.7 C408.262414,124.499989 405.656083,121.966681 403.383863,119.1 C401.111643,116.233319 399.30726,112.866686 397.97066,109 C396.63406,105.133314 395.96577,100.666692 395.96577,95.6 C395.96577,88.799966 397.202107,82.333364 399.674817,76.2 C402.147527,70.066636 405.722878,64.700023 410.400978,60.1 C415.079078,55.499977 420.759543,51.833347 427.442543,49.1 C434.125543,46.366653 441.67722,45 450.0978,45 C459.454,45 467.807624,46.366653 475.158924,49.1 C482.510224,51.833347 488.12386,55.266646 492,59.4 L467.94132,90.2 Z" id="path-1"></path>
        <path d="M558.701666,45 L540.998829,45 C532.173274,45 525,52.162022 525,60.9968238 L525,177.003176 C525,185.836664 532.16292,193 540.998829,193 L896.001171,193 C904.826726,193 912,185.837978 912,177.003176 L912,60.9968238 C912,52.1633363 904.83708,45 896.001171,45 L591.298287,45 L592.021832,0.879609142 L558.701666,45 Z" id="path-2"></path>
    </defs>
    <g id="Page-1" stroke="none" stroke-width="1" fill="none" fill-rule="evenodd" sketch:type="MSPage">
        <g id="NEWS-3">
            <use fill="#c4d1de" fill-rule="evenodd" sketch:type="MSShapeGroup" xlink:href="#path-1"></use>
            <use fill="none" xlink:href="#path-1"></use>
        </g>
        <mask id="mask-3" sketch:name="Mask" fill="white">
            <use xlink:href="#path-2"></use>
        </mask>
        <g id="Mask">
            <use fill="#1BA39C" fill-rule="evenodd" sketch:type="MSShapeGroup" xlink:href="#path-2"></use>
            <use fill="none" xlink:href="#path-2"></use>
        </g>
        <path d="M640.070588,87.7068724 L640.070588,73.2580645 L550,73.2580645 L550,87.7068724 L586.564706,87.7068724 L586.564706,167.600281 L603.505882,167.600281 L603.505882,87.7068724 L640.070588,87.7068724 Z M677.531092,167.600281 L677.531092,73.2580645 L660.589916,73.2580645 L660.589916,136.257812 L660.589916,167.600281 L677.531092,167.600281 Z M784.373109,103.85554 L784.373109,101.30575 C784.373109,84.8737728 773.078992,73.2580645 747.384874,73.2580645 L701.078992,73.2580645 L701.078992,167.600281 L718.020168,167.600281 L718.020168,132.044881 L747.384874,132.044881 C773.078992,132.044881 784.373109,120.287518 784.373109,103.85554 L784.373109,103.85554 Z M767.290756,104.280505 C767.290756,111.929874 762.773109,118.162693 749.92605,118.162693 L718.020168,118.162693 L718.020168,87.7068724 L749.220168,87.7068724 C762.067227,87.7068724 767.290756,93.5147265 767.290756,101.30575 L767.290756,104.280505 Z M886,141.110799 C886,107.396914 815.976471,118.021038 815.976471,98.0476858 C815.976471,89.973352 826.564706,84.3071529 842.235294,84.3071529 C854.941176,84.3071529 867.082353,89.8316971 874.988235,96.772791 L885.435294,86.0070126 C876.258824,76.799439 860.588235,70 842.517647,70 C815.694118,70 799.035294,83.173913 799.035294,99.8892006 C799.035294,134.169705 868.917647,121.279102 868.917647,142.810659 C868.917647,150.318373 861.152941,156.692847 844.635294,156.692847 C830.517647,156.692847 817.952941,152.443198 804.258824,143.660589 L795.788235,156.551192 C809.482353,165.192146 824.729412,171 842.517647,171 C868.070588,171 886,158.959327 886,141.110799 L886,141.110799 Z" id="TIPS-2" fill="#FFFFFF" sketch:type="MSShapeGroup" mask="url(#mask-3)"></path>
    </g>
</svg>